<svg width="432" height="115" viewBox="0 0 432 115" fill="none" xmlns="http://www.w3.org/2000/svg">
<path fill-rule="evenodd" clip-rule="evenodd" d="M57.5 115C89.2564 115 115 89.2564 115 57.5C115 25.7436 89.2564 0 57.5 0C25.7436 0 0 25.7436 0 57.5C0 89.2564 25.7436 115 57.5 115ZM57.5 100C80.9721 100 100 80.9721 100 57.5C100 34.0279 80.9721 15 57.5 15C34.0279 15 15 34.0279 15 57.5C15 80.9721 34.0279 100 57.5 100Z" fill="#056B29"/>
<path d="M157.181 114.912C151.101 114.912 145.071 113.848 139.093 111.72C133.114 109.592 128.807 107.211 126.173 104.576L134.229 90.136C136.357 92.0613 139.65 94.088 144.109 96.216C148.669 98.2427 153.026 99.256 157.181 99.256C162.551 99.256 166.909 97.9893 170.253 95.456C173.698 92.9227 175.421 89.4267 175.421 84.968C175.421 81.5227 174.509 78.5333 172.685 76C170.861 73.4667 168.631 71.3893 165.997 69.768C163.362 68.0453 159.613 65.968 154.749 63.536C148.973 60.6987 145.021 58.5707 142.893 57.152C133.063 50.5653 128.149 41.4453 128.149 29.792C128.149 20.1653 131.341 12.8187 137.725 7.752C144.109 2.584 152.165 0 161.893 0C172.33 0 181.197 2.98933 188.493 8.968L180.437 22.8C178.511 20.7733 175.775 19.0507 172.229 17.632C168.783 16.112 165.085 15.352 161.133 15.352C156.066 15.352 152.063 16.5173 149.125 18.848C146.287 21.0773 144.869 24.4213 144.869 28.88C144.869 32.0213 145.781 34.8587 147.605 37.392C149.429 39.824 151.709 41.952 154.445 43.776C157.282 45.6 161.082 47.8293 165.845 50.464C170.405 52.9973 173.901 55.024 176.333 56.544C178.765 57.9627 181.045 59.6853 183.173 61.712C186.111 64.3467 188.493 67.488 190.317 71.136C192.141 74.784 193.053 78.7867 193.053 83.144C193.053 89.9333 191.482 95.7093 188.341 100.472C185.301 105.235 181.045 108.832 175.573 111.264C170.202 113.696 164.071 114.912 157.181 114.912Z" fill="#056B29"/>
<path d="M211.352 1.67201H235.976C249.859 1.67201 259.992 4.66134 266.376 10.64C272.861 16.5173 276.104 24.624 276.104 34.96C276.104 46.9173 272.608 56.088 265.616 62.472C258.624 68.856 248.237 72.048 234.456 72.048H228.528V113.392H211.352V1.67201ZM234.912 57C243.829 57 250.061 55.024 253.608 51.072C257.155 47.12 258.928 42.3573 258.928 36.784C258.928 30.8053 257.205 25.9413 253.76 22.192C250.315 18.4427 244.539 16.568 236.432 16.568H228.528V57H234.912Z" fill="#056B29"/>
<path d="M293.93 1.67201H310.954V113.392H293.93V1.67201Z" fill="#056B29"/>
<path d="M377.521 1.52L431.329 113.392H411.721L402.145 91.504H350.921L341.345 113.392H322.345L375.849 1.52H377.521ZM369.921 49.096L357.761 76.152H395.457L383.449 49.248L376.913 33.896H376.609L369.921 49.096Z" fill="#056B29"/>
<path d="M52.4116 35.0095C53.2391 34.7392 54.0982 34.5739 54.9681 34.5429C63.0573 34.2545 71.3889 35.3951 78.9911 38.2037L63.4136 53.7811C62.0049 55.1898 60.1539 55.8956 58.3006 55.8884L39.5072 55.812C38.0067 55.8055 36.7858 54.5846 36.7793 53.0841C36.7736 51.5836 37.9846 50.3726 39.4851 50.3784L56.4467 50.4474C57.4527 50.4515 58.2692 49.6351 58.2652 48.6292C58.2612 47.6346 57.456 46.8293 56.4614 46.8253L39.4703 46.7565C37.6544 46.7487 36.0219 47.5065 34.868 48.7221L21.6456 61.9445C20.589 63.001 18.8687 62.994 17.8035 61.9288C16.7383 60.8636 16.7313 59.1434 17.7879 58.0868L33.5703 42.3043C34.6823 41.1923 36.0409 40.3583 37.5357 39.8699L52.4116 35.0095Z" fill="#056B29"/>
<path d="M35.4559 76.3893C43.1007 79.104 51.5749 80.1296 59.678 79.8753C59.7187 79.8346 59.6824 79.8938 59.7369 79.8753L76.3716 74.2431C77.827 73.7503 79.1492 72.9288 80.2357 71.8423L96.058 56.02C97.1146 54.9634 97.1303 53.2659 96.0931 52.2288C95.0559 51.1915 93.3584 51.2073 92.3018 52.2639L79.0794 65.4862C77.9246 66.7011 76.3037 67.4703 74.5117 67.4866L57.7928 67.6417C56.7929 67.651 55.98 66.838 55.9893 65.8381C55.9984 64.8642 56.7857 64.077 57.7596 64.068L74.5449 63.9125C76.0255 63.8984 77.2365 62.6874 77.2506 61.2067C77.264 59.7261 76.0752 58.5373 74.5945 58.5507L56.0495 58.7225C54.2206 58.7398 52.3846 59.4607 50.9759 60.8693L35.4559 76.3893Z" fill="#056B29"/>
<path d="M81.1176 58.9993L87.8983 52.2186C88.9573 51.1596 88.8422 49.3273 87.6412 48.1263C86.4402 46.9252 84.6078 46.8101 83.5489 47.8691L76.7675 54.6505C78.7121 55.45 80.3182 57.0546 81.1176 58.9993Z" fill="#056B29"/>
<path d="M26.4912 62.4319L33.2719 55.6512C33.8999 57.4243 35.3053 58.8284 37.0784 59.4563L30.297 66.2377C29.238 67.2967 27.5274 67.3033 26.4765 66.2524C25.4256 65.2015 25.4322 63.4909 26.4912 62.4319Z" fill="#056B29"/>
<path d="M39.7968 59.4563L36.8212 62.4319C35.7622 63.4909 35.7556 65.2015 36.8065 66.2524C37.8574 67.3033 39.568 67.2967 40.627 66.2377L47.4084 59.4563H39.7968Z" fill="#056B29"/>
<path d="M77.2087 52.0923L74.6505 54.6505H65.9516L72.8592 47.7428C73.9182 46.6838 75.7505 46.799 76.9515 48C78.1525 49.201 78.2677 51.0333 77.2087 52.0923Z" fill="#056B29"/>
</svg>
